<?xml version="1.0" encoding="utf-8"?>
<!-- Generator: Adobe Illustrator 18.1.1, SVG Export Plug-In . SVG Version: 6.00 Build 0)  -->
<svg version="1.1" id="Layer_1" xmlns="http://www.w3.org/2000/svg" xmlns:xlink="http://www.w3.org/1999/xlink" x="0px" y="0px"
	 viewBox="-25.5 4.5 425.2 480" enable-background="new -25.5 4.5 425.2 480" xml:space="preserve">
<g>
	<g>
		<g>
			<path fill="#1884A4" d="M388.9,358.3c-23,13.3-45.9,26.4-68.9,39.7c-36.6,21.1-73.2,42.2-109.8,63.3c-8.4,4.8-16.8,9.7-25.3,14.6
				c1.6,0,3.2,0,4.7,0c-23-13.3-45.9-26.5-68.8-39.8c-36.5-21.2-73.2-42.3-109.7-63.4c-8.4-4.8-16.8-9.8-25.3-14.6
				c0.7,1.4,1.6,2.7,2.3,4.1c0-26.5,0-53,0-79.5c0-42.2,0-84.5,0.1-126.8c0-9.8,0-19.5,0-29.3c-0.7,1.4-1.6,2.7-2.3,4.1
				C9,117.5,32,104.3,54.9,91.1C91.6,70,128.1,48.8,164.8,27.8c8.4-4.8,16.8-9.7,25.3-14.6c-1.6,0-3.2,0-4.7,0
				c23,13.3,45.9,26.5,68.8,39.8c36.5,21.2,73.2,42.3,109.7,63.4c8.4,4.8,16.8,9.8,25.3,14.6c-0.7-1.4-1.6-2.7-2.3-4.1
				c0,26.5,0,53,0,79.5c0,42.2,0,84.5-0.1,126.8c0,9.8,0,19.5,0,29.3c0,6.1,9.5,6.1,9.5,0c0-26.5,0-53,0-79.5
				c0-42.2,0-84.5,0.1-126.8c0-9.8,0-19.5,0-29.3c0-1.7-0.9-3.3-2.3-4.1c-23.3-13.4-46.4-26.8-69.7-40.2
				C287.4,61.4,250.8,40.1,214,18.9c-7.8-4.5-15.6-10.2-23.8-13.8c-3.2-1.5-5.2,0-7.7,1.5c-4.1,2.4-8.2,4.7-12.3,7.2
				c-35.2,20.1-70.1,40.3-105.1,60.4c-27.5,15.9-55.5,31.2-82.5,47.6c-0.4,0.3-0.9,0.5-1.4,0.7c-1.5,0.8-2.3,2.4-2.3,4.1
				c0,26.5,0,53,0,79.5c0,42.2,0,84.5-0.1,126.8c0,9.8,0,19.5,0,29.3c0,1.7,0.9,3.3,2.3,4.1c23.3,13.4,46.4,26.8,69.7,40.2
				c36.7,21.2,73.4,42.4,110.1,63.6c7.8,4.5,15.6,10.1,23.9,13.8c3.2,1.5,5.2,0,7.7-1.5c4.1-2.4,8.2-4.7,12.3-7.2
				c35-20.2,70-40.3,105-60.5c27.5-15.9,55.4-31.1,82.5-47.6c0.4-0.3,0.9-0.5,1.4-0.7C399,363.3,394.3,355.2,388.9,358.3z"/>
		</g>
	</g>
	<g>
		<polygon fill="#FFFFFF" points="370.9,350.6 187.4,456.4 4,350.4 4.1,138.4 187.6,32.6 371,138.6 		"/>
		<g>
			<path fill="#1884A4" d="M369.3,347.8c-20.7,12-41.5,23.9-62.1,35.9c-32.8,19-65.7,37.9-98.5,56.9c-7.6,4.4-15.2,8.7-22.7,13.2
				c1.1,0,2.1,0,3.2,0c-20.7-12-41.4-23.9-62.1-35.9c-32.8-19-65.7-38-98.5-57c-7.6-4.4-15.2-8.7-22.7-13.2c0.5,0.9,1.1,1.8,1.6,2.7
				c0-23.9,0-47.8,0-71.8c0-37.9,0-75.9,0-113.8c0-8.7,0-17.6,0-26.3c-0.5,0.9-1.1,1.8-1.6,2.7c20.7-12,41.5-23.9,62.1-35.9
				c32.8-19,65.7-37.9,98.5-56.9c7.6-4.4,15.2-8.7,22.7-13.2c-1.1,0-2.1,0-3.2,0c20.7,12,41.4,23.9,62.1,35.9
				c32.8,19,65.7,38,98.5,57c7.6,4.4,15.2,8.7,22.7,13.2c-0.5-0.9-1.1-1.8-1.6-2.7c0,23.9,0,47.8,0,71.8c0,37.9,0,75.9,0,113.8
				c0,8.7,0,17.6,0,26.3c0,4.1,6.3,4.1,6.3,0c0-23.9,0-47.8,0-71.8c0-37.9,0-75.9,0-113.8c0-8.7,0-17.6,0-26.3
				c0-1.2-0.6-2.2-1.6-2.7c-20.7-12-41.4-23.9-62.1-35.9c-32.8-19-65.7-38-98.5-57c-7.6-4.4-15.2-8.7-22.7-13.2
				c-0.9-0.5-2.2-0.5-3.2,0c-21.1,12.1-42,24.2-63.1,36.3c-33,19.1-66,38-99,57.1c-4.9,2.8-9.8,5.7-14.7,8.5
				c-2.1,1.3-4.7,2.3-6.6,3.8c-2,1.6-1.8,3.4-1.8,5.6c0,4.2,0,8.4,0,12.7c0,36.2,0,72.5,0,108.8c0,28.6-0.6,57.4,0,86.1
				c0,0.5,0,1.1,0,1.5c0,1.2,0.6,2.2,1.6,2.7c21,12.1,42,24.3,63,36.4c33,19.1,65.9,38.1,98.9,57.2c4.9,2.8,9.8,5.7,14.7,8.5
				c2.1,1.3,4.3,2.9,6.6,3.8c2.4,0.9,3.8-0.1,5.8-1.3c3.7-2.1,7.4-4.2,11.1-6.3c31.4-18.1,62.9-36.2,94.2-54.3
				c24.8-14.3,50-28.1,74.5-43.1c0.4-0.2,0.8-0.5,1.3-0.7C376.1,351.2,372.9,345.7,369.3,347.8z"/>
		</g>
	</g>
	<text transform="matrix(1 0 0 1 37.202 271.3401)" fill="#697206" font-family="'Sullivan-Bevel'" font-size="109.0818">SEATTLE</text>
	<g>
		<polygon fill="none" stroke="#697206" stroke-width="3" stroke-miterlimit="10" points="99.5,168 187.1,54.4 274.7,168 		"/>
		<polygon fill="#697206" points="165.3,93.9 170.2,106.8 175.8,92.7 185.9,111.2 187.1,89.6 198.4,100.6 200.9,88.5 223.4,101.6 
			186.3,54.4 148.6,104.2 		"/>
	</g>
	<text transform="matrix(1 0 0 1 122.2099 388.6876)" fill="#8B9414" font-family="'Sullivan-Bevel'" font-size="94.7433">W A</text>
	
		<line fill="none" stroke="#1884A4" stroke-width="3" stroke-linecap="round" stroke-miterlimit="10" x1="42.1" y1="299" x2="332.9" y2="299"/>
</g>
<path fill="#697206" d="M-39,4.5"/>
</svg>
